<?xml version="1.0"?>
<svg xmlns="http://www.w3.org/2000/svg" version="1.0" width="130" height="50">
	<rect x="0" width="130" y="0" height="50" fill="white" />
	<line x1="65" x2="15" y1="5" y2="25" stroke-width="0.1" stroke="black" />
	<circle cx="65" cy="5" r="2" fill="red" stroke="black" stroke-width="0.2" />
	<circle cx="15" cy="25" r="2" fill="red" stroke="black" stroke-width="0.2" />
	<line x1="65" x2="45" y1="5" y2="25" stroke-width="0.1" stroke="black" />
	<circle cx="65" cy="5" r="2" fill="red" stroke="black" stroke-width="0.2" />
	<circle cx="45" cy="25" r="2" fill="red" stroke="black" stroke-width="0.2" />
	<line x1="65" x2="65" y1="5" y2="25" stroke-width="0.1" stroke="black" />
	<circle cx="65" cy="5" r="2" fill="red" stroke="black" stroke-width="0.2" />
	<circle cx="65" cy="25" r="2" fill="red" stroke="black" stroke-width="0.2" />
	<line x1="65" x2="105" y1="5" y2="25" stroke-width="0.1" stroke="black" />
	<circle cx="65" cy="5" r="2" fill="red" stroke="black" stroke-width="0.2" />
	<circle cx="105" cy="25" r="2" fill="red" stroke="black" stroke-width="0.2" />
	<line x1="15" x2="5" y1="25" y2="45" stroke-width="0.1" stroke="black" />
	<circle cx="15" cy="25" r="2" fill="red" stroke="black" stroke-width="0.2" />
	<circle cx="5" cy="45" r="2" fill="red" stroke="black" stroke-width="0.2" />
	<line x1="15" x2="25" y1="25" y2="45" stroke-width="0.1" stroke="black" />
	<circle cx="15" cy="25" r="2" fill="red" stroke="black" stroke-width="0.2" />
	<circle cx="25" cy="45" r="2" fill="red" stroke="black" stroke-width="0.2" />
	<line x1="105" x2="85" y1="25" y2="45" stroke-width="0.1" stroke="black" />
	<circle cx="105" cy="25" r="2" fill="red" stroke="black" stroke-width="0.2" />
	<circle cx="85" cy="45" r="2" fill="red" stroke="black" stroke-width="0.2" />
	<line x1="105" x2="105" y1="25" y2="45" stroke-width="0.1" stroke="black" />
	<circle cx="105" cy="25" r="2" fill="red" stroke="black" stroke-width="0.2" />
	<circle cx="105" cy="45" r="2" fill="red" stroke="black" stroke-width="0.2" />
	<line x1="105" x2="125" y1="25" y2="45" stroke-width="0.1" stroke="black" />
	<circle cx="105" cy="25" r="2" fill="red" stroke="black" stroke-width="0.2" />
	<circle cx="125" cy="45" r="2" fill="red" stroke="black" stroke-width="0.2" />
</svg>
