<?xml version="1.0"?>
<svg xmlns="http://www.w3.org/2000/svg" version="1.0" width="530" height="70">
	<rect x="0" width="530" y="0" height="70" fill="white" />
	<line x1="265" x2="85" y1="5" y2="25" stroke-width="0.1" stroke="black" />
	<circle cx="265" cy="5" r="2" fill="red" stroke="black" stroke-width="0.2" />
	<circle cx="85" cy="25" r="2" fill="red" stroke="black" stroke-width="0.2" />
	<line x1="265" x2="265" y1="5" y2="25" stroke-width="0.1" stroke="black" />
	<circle cx="265" cy="5" r="2" fill="red" stroke="black" stroke-width="0.2" />
	<circle cx="265" cy="25" r="2" fill="red" stroke="black" stroke-width="0.2" />
	<line x1="265" x2="445" y1="5" y2="25" stroke-width="0.1" stroke="black" />
	<circle cx="265" cy="5" r="2" fill="red" stroke="black" stroke-width="0.2" />
	<circle cx="445" cy="25" r="2" fill="red" stroke="black" stroke-width="0.2" />
	<line x1="85" x2="25" y1="25" y2="45" stroke-width="0.1" stroke="black" />
	<circle cx="85" cy="25" r="2" fill="red" stroke="black" stroke-width="0.2" />
	<circle cx="25" cy="45" r="2" fill="red" stroke="black" stroke-width="0.2" />
	<line x1="85" x2="85" y1="25" y2="45" stroke-width="0.1" stroke="black" />
	<circle cx="85" cy="25" r="2" fill="red" stroke="black" stroke-width="0.2" />
	<circle cx="85" cy="45" r="2" fill="red" stroke="black" stroke-width="0.2" />
	<line x1="85" x2="145" y1="25" y2="45" stroke-width="0.1" stroke="black" />
	<circle cx="85" cy="25" r="2" fill="red" stroke="black" stroke-width="0.2" />
	<circle cx="145" cy="45" r="2" fill="red" stroke="black" stroke-width="0.2" />
	<line x1="265" x2="205" y1="25" y2="45" stroke-width="0.1" stroke="black" />
	<circle cx="265" cy="25" r="2" fill="red" stroke="black" stroke-width="0.2" />
	<circle cx="205" cy="45" r="2" fill="red" stroke="black" stroke-width="0.2" />
	<line x1="265" x2="265" y1="25" y2="45" stroke-width="0.1" stroke="black" />
	<circle cx="265" cy="25" r="2" fill="red" stroke="black" stroke-width="0.2" />
	<circle cx="265" cy="45" r="2" fill="red" stroke="black" stroke-width="0.2" />
	<line x1="265" x2="325" y1="25" y2="45" stroke-width="0.1" stroke="black" />
	<circle cx="265" cy="25" r="2" fill="red" stroke="black" stroke-width="0.2" />
	<circle cx="325" cy="45" r="2" fill="red" stroke="black" stroke-width="0.2" />
	<line x1="445" x2="385" y1="25" y2="45" stroke-width="0.1" stroke="black" />
	<circle cx="445" cy="25" r="2" fill="red" stroke="black" stroke-width="0.2" />
	<circle cx="385" cy="45" r="2" fill="red" stroke="black" stroke-width="0.2" />
	<line x1="445" x2="445" y1="25" y2="45" stroke-width="0.1" stroke="black" />
	<circle cx="445" cy="25" r="2" fill="red" stroke="black" stroke-width="0.2" />
	<circle cx="445" cy="45" r="2" fill="red" stroke="black" stroke-width="0.2" />
	<line x1="445" x2="505" y1="25" y2="45" stroke-width="0.1" stroke="black" />
	<circle cx="445" cy="25" r="2" fill="red" stroke="black" stroke-width="0.2" />
	<circle cx="505" cy="45" r="2" fill="red" stroke="black" stroke-width="0.2" />
	<line x1="25" x2="5" y1="45" y2="65" stroke-width="0.1" stroke="black" />
	<circle cx="25" cy="45" r="2" fill="red" stroke="black" stroke-width="0.2" />
	<circle cx="5" cy="65" r="2" fill="red" stroke="black" stroke-width="0.2" />
	<line x1="25" x2="25" y1="45" y2="65" stroke-width="0.1" stroke="black" />
	<circle cx="25" cy="45" r="2" fill="red" stroke="black" stroke-width="0.2" />
	<circle cx="25" cy="65" r="2" fill="red" stroke="black" stroke-width="0.2" />
	<line x1="25" x2="45" y1="45" y2="65" stroke-width="0.1" stroke="black" />
	<circle cx="25" cy="45" r="2" fill="red" stroke="black" stroke-width="0.2" />
	<circle cx="45" cy="65" r="2" fill="red" stroke="black" stroke-width="0.2" />
	<line x1="85" x2="65" y1="45" y2="65" stroke-width="0.1" stroke="black" />
	<circle cx="85" cy="45" r="2" fill="red" stroke="black" stroke-width="0.2" />
	<circle cx="65" cy="65" r="2" fill="red" stroke="black" stroke-width="0.2" />
	<line x1="85" x2="85" y1="45" y2="65" stroke-width="0.1" stroke="black" />
	<circle cx="85" cy="45" r="2" fill="red" stroke="black" stroke-width="0.2" />
	<circle cx="85" cy="65" r="2" fill="red" stroke="black" stroke-width="0.2" />
	<line x1="85" x2="105" y1="45" y2="65" stroke-width="0.1" stroke="black" />
	<circle cx="85" cy="45" r="2" fill="red" stroke="black" stroke-width="0.2" />
	<circle cx="105" cy="65" r="2" fill="red" stroke="black" stroke-width="0.2" />
	<line x1="145" x2="125" y1="45" y2="65" stroke-width="0.1" stroke="black" />
	<circle cx="145" cy="45" r="2" fill="red" stroke="black" stroke-width="0.2" />
	<circle cx="125" cy="65" r="2" fill="red" stroke="black" stroke-width="0.2" />
	<line x1="145" x2="145" y1="45" y2="65" stroke-width="0.1" stroke="black" />
	<circle cx="145" cy="45" r="2" fill="red" stroke="black" stroke-width="0.2" />
	<circle cx="145" cy="65" r="2" fill="red" stroke="black" stroke-width="0.2" />
	<line x1="145" x2="165" y1="45" y2="65" stroke-width="0.1" stroke="black" />
	<circle cx="145" cy="45" r="2" fill="red" stroke="black" stroke-width="0.2" />
	<circle cx="165" cy="65" r="2" fill="red" stroke="black" stroke-width="0.2" />
	<line x1="205" x2="185" y1="45" y2="65" stroke-width="0.1" stroke="black" />
	<circle cx="205" cy="45" r="2" fill="red" stroke="black" stroke-width="0.2" />
	<circle cx="185" cy="65" r="2" fill="red" stroke="black" stroke-width="0.2" />
	<line x1="205" x2="205" y1="45" y2="65" stroke-width="0.1" stroke="black" />
	<circle cx="205" cy="45" r="2" fill="red" stroke="black" stroke-width="0.2" />
	<circle cx="205" cy="65" r="2" fill="red" stroke="black" stroke-width="0.2" />
	<line x1="205" x2="225" y1="45" y2="65" stroke-width="0.1" stroke="black" />
	<circle cx="205" cy="45" r="2" fill="red" stroke="black" stroke-width="0.2" />
	<circle cx="225" cy="65" r="2" fill="red" stroke="black" stroke-width="0.2" />
	<line x1="265" x2="245" y1="45" y2="65" stroke-width="0.1" stroke="black" />
	<circle cx="265" cy="45" r="2" fill="red" stroke="black" stroke-width="0.2" />
	<circle cx="245" cy="65" r="2" fill="red" stroke="black" stroke-width="0.2" />
	<line x1="265" x2="265" y1="45" y2="65" stroke-width="0.1" stroke="black" />
	<circle cx="265" cy="45" r="2" fill="red" stroke="black" stroke-width="0.2" />
	<circle cx="265" cy="65" r="2" fill="red" stroke="black" stroke-width="0.2" />
	<line x1="265" x2="285" y1="45" y2="65" stroke-width="0.1" stroke="black" />
	<circle cx="265" cy="45" r="2" fill="red" stroke="black" stroke-width="0.2" />
	<circle cx="285" cy="65" r="2" fill="red" stroke="black" stroke-width="0.2" />
	<line x1="325" x2="305" y1="45" y2="65" stroke-width="0.1" stroke="black" />
	<circle cx="325" cy="45" r="2" fill="red" stroke="black" stroke-width="0.2" />
	<circle cx="305" cy="65" r="2" fill="red" stroke="black" stroke-width="0.2" />
	<line x1="325" x2="325" y1="45" y2="65" stroke-width="0.1" stroke="black" />
	<circle cx="325" cy="45" r="2" fill="red" stroke="black" stroke-width="0.2" />
	<circle cx="325" cy="65" r="2" fill="red" stroke="black" stroke-width="0.2" />
	<line x1="325" x2="345" y1="45" y2="65" stroke-width="0.1" stroke="black" />
	<circle cx="325" cy="45" r="2" fill="red" stroke="black" stroke-width="0.2" />
	<circle cx="345" cy="65" r="2" fill="red" stroke="black" stroke-width="0.2" />
	<line x1="385" x2="365" y1="45" y2="65" stroke-width="0.1" stroke="black" />
	<circle cx="385" cy="45" r="2" fill="red" stroke="black" stroke-width="0.2" />
	<circle cx="365" cy="65" r="2" fill="red" stroke="black" stroke-width="0.2" />
	<line x1="385" x2="385" y1="45" y2="65" stroke-width="0.1" stroke="black" />
	<circle cx="385" cy="45" r="2" fill="red" stroke="black" stroke-width="0.2" />
	<circle cx="385" cy="65" r="2" fill="red" stroke="black" stroke-width="0.2" />
	<line x1="385" x2="405" y1="45" y2="65" stroke-width="0.1" stroke="black" />
	<circle cx="385" cy="45" r="2" fill="red" stroke="black" stroke-width="0.2" />
	<circle cx="405" cy="65" r="2" fill="red" stroke="black" stroke-width="0.2" />
	<line x1="445" x2="425" y1="45" y2="65" stroke-width="0.1" stroke="black" />
	<circle cx="445" cy="45" r="2" fill="red" stroke="black" stroke-width="0.2" />
	<circle cx="425" cy="65" r="2" fill="red" stroke="black" stroke-width="0.2" />
	<line x1="445" x2="445" y1="45" y2="65" stroke-width="0.1" stroke="black" />
	<circle cx="445" cy="45" r="2" fill="red" stroke="black" stroke-width="0.2" />
	<circle cx="445" cy="65" r="2" fill="red" stroke="black" stroke-width="0.2" />
	<line x1="445" x2="465" y1="45" y2="65" stroke-width="0.1" stroke="black" />
	<circle cx="445" cy="45" r="2" fill="red" stroke="black" stroke-width="0.2" />
	<circle cx="465" cy="65" r="2" fill="red" stroke="black" stroke-width="0.2" />
	<line x1="505" x2="485" y1="45" y2="65" stroke-width="0.1" stroke="black" />
	<circle cx="505" cy="45" r="2" fill="red" stroke="black" stroke-width="0.2" />
	<circle cx="485" cy="65" r="2" fill="red" stroke="black" stroke-width="0.2" />
	<line x1="505" x2="505" y1="45" y2="65" stroke-width="0.1" stroke="black" />
	<circle cx="505" cy="45" r="2" fill="red" stroke="black" stroke-width="0.2" />
	<circle cx="505" cy="65" r="2" fill="red" stroke="black" stroke-width="0.2" />
	<line x1="505" x2="525" y1="45" y2="65" stroke-width="0.1" stroke="black" />
	<circle cx="505" cy="45" r="2" fill="red" stroke="black" stroke-width="0.2" />
	<circle cx="525" cy="65" r="2" fill="red" stroke="black" stroke-width="0.2" />
</svg>
