<?xml version="1.0"?>
<svg xmlns="http://www.w3.org/2000/svg" version="1.0" width="310" height="90">
	<rect x="0" width="310" y="0" height="90" fill="white" />
	<line x1="155" x2="75" y1="5" y2="25" stroke-width="0.1" stroke="black" />
	<circle cx="155" cy="5" r="2" fill="red" stroke="black" stroke-width="0.2" />
	<circle cx="75" cy="25" r="2" fill="red" stroke="black" stroke-width="0.2" />
	<line x1="155" x2="235" y1="5" y2="25" stroke-width="0.1" stroke="black" />
	<circle cx="155" cy="5" r="2" fill="red" stroke="black" stroke-width="0.2" />
	<circle cx="235" cy="25" r="2" fill="red" stroke="black" stroke-width="0.2" />
	<line x1="75" x2="35" y1="25" y2="45" stroke-width="0.1" stroke="black" />
	<circle cx="75" cy="25" r="2" fill="red" stroke="black" stroke-width="0.2" />
	<circle cx="35" cy="45" r="2" fill="red" stroke="black" stroke-width="0.2" />
	<line x1="75" x2="115" y1="25" y2="45" stroke-width="0.1" stroke="black" />
	<circle cx="75" cy="25" r="2" fill="red" stroke="black" stroke-width="0.2" />
	<circle cx="115" cy="45" r="2" fill="red" stroke="black" stroke-width="0.2" />
	<line x1="235" x2="195" y1="25" y2="45" stroke-width="0.1" stroke="black" />
	<circle cx="235" cy="25" r="2" fill="red" stroke="black" stroke-width="0.2" />
	<circle cx="195" cy="45" r="2" fill="red" stroke="black" stroke-width="0.2" />
	<line x1="235" x2="275" y1="25" y2="45" stroke-width="0.1" stroke="black" />
	<circle cx="235" cy="25" r="2" fill="red" stroke="black" stroke-width="0.2" />
	<circle cx="275" cy="45" r="2" fill="red" stroke="black" stroke-width="0.2" />
	<line x1="35" x2="15" y1="45" y2="65" stroke-width="0.1" stroke="black" />
	<circle cx="35" cy="45" r="2" fill="red" stroke="black" stroke-width="0.2" />
	<circle cx="15" cy="65" r="2" fill="red" stroke="black" stroke-width="0.2" />
	<line x1="35" x2="55" y1="45" y2="65" stroke-width="0.1" stroke="black" />
	<circle cx="35" cy="45" r="2" fill="red" stroke="black" stroke-width="0.2" />
	<circle cx="55" cy="65" r="2" fill="red" stroke="black" stroke-width="0.2" />
	<line x1="115" x2="95" y1="45" y2="65" stroke-width="0.1" stroke="black" />
	<circle cx="115" cy="45" r="2" fill="red" stroke="black" stroke-width="0.2" />
	<circle cx="95" cy="65" r="2" fill="red" stroke="black" stroke-width="0.2" />
	<line x1="115" x2="135" y1="45" y2="65" stroke-width="0.1" stroke="black" />
	<circle cx="115" cy="45" r="2" fill="red" stroke="black" stroke-width="0.2" />
	<circle cx="135" cy="65" r="2" fill="red" stroke="black" stroke-width="0.2" />
	<line x1="195" x2="175" y1="45" y2="65" stroke-width="0.1" stroke="black" />
	<circle cx="195" cy="45" r="2" fill="red" stroke="black" stroke-width="0.2" />
	<circle cx="175" cy="65" r="2" fill="red" stroke="black" stroke-width="0.2" />
	<line x1="195" x2="215" y1="45" y2="65" stroke-width="0.1" stroke="black" />
	<circle cx="195" cy="45" r="2" fill="red" stroke="black" stroke-width="0.2" />
	<circle cx="215" cy="65" r="2" fill="red" stroke="black" stroke-width="0.2" />
	<line x1="275" x2="255" y1="45" y2="65" stroke-width="0.1" stroke="black" />
	<circle cx="275" cy="45" r="2" fill="red" stroke="black" stroke-width="0.2" />
	<circle cx="255" cy="65" r="2" fill="red" stroke="black" stroke-width="0.2" />
	<line x1="275" x2="295" y1="45" y2="65" stroke-width="0.1" stroke="black" />
	<circle cx="275" cy="45" r="2" fill="red" stroke="black" stroke-width="0.2" />
	<circle cx="295" cy="65" r="2" fill="red" stroke="black" stroke-width="0.2" />
	<line x1="15" x2="5" y1="65" y2="85" stroke-width="0.1" stroke="black" />
	<circle cx="15" cy="65" r="2" fill="red" stroke="black" stroke-width="0.2" />
	<circle cx="5" cy="85" r="2" fill="red" stroke="black" stroke-width="0.2" />
	<line x1="15" x2="25" y1="65" y2="85" stroke-width="0.1" stroke="black" />
	<circle cx="15" cy="65" r="2" fill="red" stroke="black" stroke-width="0.2" />
	<circle cx="25" cy="85" r="2" fill="red" stroke="black" stroke-width="0.2" />
	<line x1="55" x2="45" y1="65" y2="85" stroke-width="0.1" stroke="black" />
	<circle cx="55" cy="65" r="2" fill="red" stroke="black" stroke-width="0.2" />
	<circle cx="45" cy="85" r="2" fill="red" stroke="black" stroke-width="0.2" />
	<line x1="55" x2="65" y1="65" y2="85" stroke-width="0.1" stroke="black" />
	<circle cx="55" cy="65" r="2" fill="red" stroke="black" stroke-width="0.2" />
	<circle cx="65" cy="85" r="2" fill="red" stroke="black" stroke-width="0.2" />
	<line x1="95" x2="85" y1="65" y2="85" stroke-width="0.1" stroke="black" />
	<circle cx="95" cy="65" r="2" fill="red" stroke="black" stroke-width="0.2" />
	<circle cx="85" cy="85" r="2" fill="red" stroke="black" stroke-width="0.2" />
	<line x1="95" x2="105" y1="65" y2="85" stroke-width="0.1" stroke="black" />
	<circle cx="95" cy="65" r="2" fill="red" stroke="black" stroke-width="0.2" />
	<circle cx="105" cy="85" r="2" fill="red" stroke="black" stroke-width="0.2" />
	<line x1="135" x2="125" y1="65" y2="85" stroke-width="0.1" stroke="black" />
	<circle cx="135" cy="65" r="2" fill="red" stroke="black" stroke-width="0.2" />
	<circle cx="125" cy="85" r="2" fill="red" stroke="black" stroke-width="0.2" />
	<line x1="135" x2="145" y1="65" y2="85" stroke-width="0.1" stroke="black" />
	<circle cx="135" cy="65" r="2" fill="red" stroke="black" stroke-width="0.2" />
	<circle cx="145" cy="85" r="2" fill="red" stroke="black" stroke-width="0.2" />
	<line x1="175" x2="165" y1="65" y2="85" stroke-width="0.1" stroke="black" />
	<circle cx="175" cy="65" r="2" fill="red" stroke="black" stroke-width="0.2" />
	<circle cx="165" cy="85" r="2" fill="red" stroke="black" stroke-width="0.2" />
	<line x1="175" x2="185" y1="65" y2="85" stroke-width="0.1" stroke="black" />
	<circle cx="175" cy="65" r="2" fill="red" stroke="black" stroke-width="0.2" />
	<circle cx="185" cy="85" r="2" fill="red" stroke="black" stroke-width="0.2" />
	<line x1="215" x2="205" y1="65" y2="85" stroke-width="0.1" stroke="black" />
	<circle cx="215" cy="65" r="2" fill="red" stroke="black" stroke-width="0.2" />
	<circle cx="205" cy="85" r="2" fill="red" stroke="black" stroke-width="0.2" />
	<line x1="215" x2="225" y1="65" y2="85" stroke-width="0.1" stroke="black" />
	<circle cx="215" cy="65" r="2" fill="red" stroke="black" stroke-width="0.2" />
	<circle cx="225" cy="85" r="2" fill="red" stroke="black" stroke-width="0.2" />
	<line x1="255" x2="245" y1="65" y2="85" stroke-width="0.1" stroke="black" />
	<circle cx="255" cy="65" r="2" fill="red" stroke="black" stroke-width="0.2" />
	<circle cx="245" cy="85" r="2" fill="red" stroke="black" stroke-width="0.2" />
	<line x1="255" x2="265" y1="65" y2="85" stroke-width="0.1" stroke="black" />
	<circle cx="255" cy="65" r="2" fill="red" stroke="black" stroke-width="0.2" />
	<circle cx="265" cy="85" r="2" fill="red" stroke="black" stroke-width="0.2" />
	<line x1="295" x2="285" y1="65" y2="85" stroke-width="0.1" stroke="black" />
	<circle cx="295" cy="65" r="2" fill="red" stroke="black" stroke-width="0.2" />
	<circle cx="285" cy="85" r="2" fill="red" stroke="black" stroke-width="0.2" />
	<line x1="295" x2="305" y1="65" y2="85" stroke-width="0.1" stroke="black" />
	<circle cx="295" cy="65" r="2" fill="red" stroke="black" stroke-width="0.2" />
	<circle cx="305" cy="85" r="2" fill="red" stroke="black" stroke-width="0.2" />
</svg>
